<svg id="Layer_1" data-name="Layer 1" width="35" height="35" xmlns="http://www.w3.org/2000/svg"
    viewBox="0 0 431.25 431.73">
    <path
        d="M426.25,280.09c0,49.83-24.06,93.13-61.66,119.54a150.74,150.74,0,0,1-73.26,26.62V379.08c38.55-7.28,68.67-42.8,73.26-87.17a114.82,114.82,0,0,0,0-23.64c-5.15-49.87-42.55-88.55-87.91-88.55v.18H215.63v83.46h-61V119.76H139.92c-38.54,7.27-68.67,42.79-73.26,87.17v23.64c5.15,49.87,42.55,88.55,87.92,88.55v46.47C70.7,365.59,5,301.09,5,218.75c0-49.83,24.07-93.13,61.66-119.54a150.73,150.73,0,0,1,73.26-26.63V5h75.71V133.25h61.05C360.55,133.25,426.25,197.75,426.25,280.09Z"
        style="fill:#3b44ac;stroke:#36499b;stroke-miterlimit:10;stroke-width:10px" />
</svg>
